<svg width="18" height="13" fill="none" xmlns="http://www.w3.org/2000/svg"><path d="M14.91 1.68c1.2-.93.91-1.68-.65-1.68H3.73c-1.56 0-1.85.76-.66 1.68l3.75 2.9a3.7 3.7 0 004.35 0l3.74-2.9z" fill="#D22856"/><path d="M11.91 6.5L9.7 8.25c-.08.04-.17.08-.26.1l-.1.05c-.1.05-.22.07-.34.09l-.33-.06-.12-.07a1.18 1.18 0 01-.24-.13L6.08 6.5l-3.9-2.97C1 2.6 0 3.03 0 4.48v5.86a2.48 2.48 0 00.82 1.87 2.87 2.87 0 002.01.79h12.32a3.04 3.04 0 002.02-.78c.27-.25.48-.54.62-.87.14-.32.21-.67.21-1.01V4.48c0-1.45-1-1.86-2.18-.93L11.91 6.5z" fill="#D22856"/></svg>