<svg width="43" height="47" fill="none" xmlns="http://www.w3.org/2000/svg"><path d="M34.89 14.06H8.1V33.2c0 .92.34 1.8.96 2.47a3.7 3.7 0 002.43 1.16v7.46c.04.73.37 1.42.92 1.93a2.99 2.99 0 004.05 0c.55-.5.88-1.2.92-1.93v-7.44h8.24v7.44c.04.73.37 1.42.92 1.93a2.99 2.99 0 004.05 0c.55-.5.88-1.2.92-1.93v-7.46a3.7 3.7 0 002.43-1.16c.63-.67.97-1.55.97-2.46V14.4l-.03-.34zM2.95 15.74c.78 0 1.53.3 2.08.85.56.54.87 1.27.87 2.04v12.4a2.84 2.84 0 01-.86 2.05 2.95 2.95 0 01-2.09.85c-.78 0-1.53-.3-2.09-.85A2.87 2.87 0 010 31.03v-12.4a2.84 2.84 0 01.87-2.04 2.95 2.95 0 012.08-.85zM40.06 15.74c.78 0 1.53.3 2.08.85.55.54.86 1.27.86 2.04v12.4a2.84 2.84 0 01-.86 2.05 2.95 2.95 0 01-2.08.85c-.79 0-1.54-.3-2.1-.85a2.87 2.87 0 01-.86-2.05v-12.4a2.84 2.84 0 01.87-2.04 2.95 2.95 0 012.09-.85zM8.17 12.06h26.57a10.4 10.4 0 00-3.26-7.3L34.05.5a.3.3 0 00-.12-.46.32.32 0 00-.42.1L31.09 4.3A16.7 16.7 0 0021.46.9a16.98 16.98 0 00-9.58 3.4L9.5.2a.32.32 0 00-.18-.16.33.33 0 00-.25 0 .31.31 0 00-.11.42l2.5 4.25a10.44 10.44 0 00-3.29 7.36zm17.7-5.21c0-.4.17-.78.45-1.06a1.55 1.55 0 012.17 0 1.49 1.49 0 010 2.12 1.55 1.55 0 01-2.17 0 1.49 1.49 0 01-.45-1.06zm-11.38 0c0-.4.16-.78.45-1.06a1.55 1.55 0 012.17 0 1.49 1.49 0 010 2.12 1.55 1.55 0 01-2.17 0 1.49 1.49 0 01-.45-1.06z" fill="#A4C639"/></svg>