<svg width="20" height="19" fill="none" xmlns="http://www.w3.org/2000/svg"><path d="M10.04 0C6.46 0 2.91.6 1.58 1.82A6.4 6.4 0 000 5.87c0 .21.09.41.25.56.15.15.37.23.59.23l3.24-.25h.08a.86.86 0 00.58-.23.78.78 0 00.24-.56V4.05a.83.83 0 01.26-.62.92.92 0 01.65-.26h8.16c.24 0 .48.09.65.25.18.17.27.4.27.63V5.6c0 .2.09.4.24.55.15.15.36.24.58.24h.09l3.28.25a.88.88 0 00.6-.23.8.8 0 00.24-.56V5.7a6.46 6.46 0 00-1.56-3.86C17.2.6 13.62 0 10.04 0zm0 10.3c-.33 0-.65.1-.93.27a1.6 1.6 0 00-.61.71 1.5 1.5 0 00.36 1.73 1.76 1.76 0 001.82.34c.3-.12.57-.32.75-.58a1.53 1.53 0 00-.2-2 1.67 1.67 0 00-1.19-.47zM8.8 6.76v-.97c0-.25-.11-.5-.3-.68-.2-.18-.45-.28-.72-.28-.27 0-.53.1-.72.28-.2.18-.3.43-.3.68v.97l-5.73 5.69a1.93 1.93 0 00-.63 1.42v1.58c0 .42.18.83.49 1.12.31.3.74.47 1.18.47h.42v.97a.95.95 0 00.3.7 1.05 1.05 0 00.74.29 1.1 1.1 0 00.74-.29.99.99 0 00.3-.7v-.97h10.91v.97c0 .26.11.51.3.7.2.19.47.29.75.29.27 0 .54-.1.74-.29.2-.19.3-.44.3-.7v-.97h.42a1.75 1.75 0 001.19-.46 1.58 1.58 0 00.48-1.13v-1.58a1.84 1.84 0 00-.62-1.42l-5.65-5.69v-.97a.96.96 0 00-.3-.7c-.2-.18-.46-.29-.74-.29-.28 0-.54.1-.74.3-.2.18-.3.43-.3.7v.96H8.78zm1.25 1.93c.66 0 1.3.19 1.86.54.55.34.98.84 1.23 1.42a3.01 3.01 0 01-.73 3.45 3.52 3.52 0 01-3.64.69 3.31 3.31 0 01-1.5-1.17 3.05 3.05 0 01.42-4c.62-.6 1.47-.93 2.36-.93z" fill="#D22856"/></svg>