<svg width="147" height="40" fill="none" xmlns="http://www.w3.org/2000/svg">
  <path d="M50.92 15.92a4.58 4.58 0 01-4.18-2.74 4.37 4.37 0 01-.34-1.7 4.4 4.4 0 01-1.33 3.14c-.84.83-2 1.3-3.19 1.3 1.2 0 2.35.47 3.2 1.3a4.42 4.42 0 011.32 3.14c0-1.18.48-2.3 1.32-3.14.85-.83 2-1.3 3.2-1.3zM38.07 19.38c-.73 0-1.43-.28-1.95-.8a2.7 2.7 0 01-.8-1.91c0 .72-.3 1.4-.81 1.91-.52.51-1.22.8-1.95.8.73 0 1.43.29 1.95.8.51.5.8 1.2.8 1.9 0-.71.3-1.4.81-1.9.52-.51 1.22-.8 1.95-.8zM10.79 33.64c-.73 0-1.43-.3-1.94-.8a2.7 2.7 0 01-.8-1.91c0 .71-.3 1.4-.81 1.91-.52.51-1.22.8-1.95.8.73 0 1.43.3 1.95.8.51.5.8 1.2.8 1.92 0-.72.3-1.4.8-1.92.52-.5 1.22-.8 1.95-.8z" fill="currentColor"/>
</svg>
