<svg width="145" height="40" fill="none" xmlns="http://www.w3.org/2000/svg">
  <path d="M72.2 18.42c0-.33.13-.65.36-.89.24-.23.56-.37.9-.38h7.21c5.11 0 8.48 2.68 8.48 7.06v.06c0 4.8-4.08 7.29-8.9 7.29h-5.5v6.73a1.24 1.24 0 01-.33.97 1.29 1.29 0 01-1.46.3 1.29 1.29 0 01-.7-.75 1.24 1.24 0 01-.07-.52V18.42zm8.15 10.87c3.75 0 6.2-1.98 6.2-4.94v-.06c0-3.18-2.41-4.83-6.02-4.83H74.8v9.79l5.55.04zM94.02 18.27a1.24 1.24 0 01.33-.97 1.29 1.29 0 011.47-.3 1.28 1.28 0 01.7.75c.05.17.08.34.06.52v20.02a1.25 1.25 0 01-.33.97 1.28 1.28 0 01-.95.4 1.3 1.3 0 01-.95-.4 1.26 1.26 0 01-.33-.97V18.27zM103.2 18.3c0-.33.14-.64.38-.87.23-.23.55-.36.88-.37h.36a1.58 1.58 0 011.3.73l13.74 17.23V18.24c0-.33.13-.64.37-.87a1.26 1.26 0 011.76 0c.23.23.36.54.36.87v20.1a1.09 1.09 0 01-.32.82 1.15 1.15 0 01-.84.34h-.13a1.74 1.74 0 01-1.33-.77l-14.06-17.64v17.24c0 .32-.13.62-.35.85-.23.23-.53.37-.86.39-.32-.01-.64-.14-.87-.37a1.21 1.21 0 01-.35-.87V18.3h-.04zM128.74 18.27a1.24 1.24 0 01.33-.97 1.29 1.29 0 01.95-.4 1.3 1.3 0 01.95.4 1.26 1.26 0 01.33.97v12.17l12.9-13a1.5 1.5 0 011-.45c.33.02.64.15.87.38.23.23.36.54.37.87a1.26 1.26 0 01-.42.89l-8.04 7.82 8.67 10.42c.22.26.35.59.35.93a1.27 1.27 0 01-.41.91 1.32 1.32 0 01-.95.36 1.26 1.26 0 01-1-.58l-8.46-10.36-4.88 4.8v4.84a1.24 1.24 0 01-.79 1.16 1.3 1.3 0 01-1.66-.68c-.07-.15-.1-.31-.1-.48v-20h-.01z" fill="currentColor"/>
</svg>
