<svg width="147" height="40" fill="none" xmlns="http://www.w3.org/2000/svg">
  <path d="M43.29 19.07h.73a2.47 2.47 0 00-2.14-1.22 2.03 2.03 0 01-1.9-1.33c-.72.2-1.42.48-2.1.8h.2c.53 0 1.04.22 1.41.59.38.37.6.87.6 1.4v.28a8.98 8.98 0 013.2-.52z" fill="currentColor"/>
  <path d="M60.73 27.65L55.54 6.57C55.18 4.25 52.93 0 46.9 0c-.4 0-.78.16-1.06.43a1.47 1.47 0 000 2.1c.28.28.66.43 1.06.43 4.87 0 5.6 3.69 5.67 4.09l4.78 19.45h-2.1a11.72 11.72 0 00-5.32-8.41 2.5 2.5 0 00-1.54 2.27 2 2 0 010 .26 9.15 9.15 0 014.02 7.37c0 .5-.06 1-.14 1.48a8.85 8.85 0 01-3.05 5.4 9.13 9.13 0 01-11.77 0 8.85 8.85 0 01-3.05-5.4 9.03 9.03 0 01-.14-1.48 9.1 9.1 0 01.95-3.95c-.5-.03-.98-.26-1.33-.62a1.96 1.96 0 01-.54-1.35.7.7 0 00-.19-.49 11.57 11.57 0 00-1.8 4.94H29.5a11.78 11.78 0 00-3.94-7.54 12.17 12.17 0 00-16.1 0 11.78 11.78 0 00-3.93 7.54H3.44l4.8-19.47c.05-.4.8-4.09 5.66-4.09.4 0 .78-.15 1.06-.43a1.47 1.47 0 000-2.1A1.52 1.52 0 0013.9 0C7.87 0 5.62 4.25 5.26 6.57L.06 27.65A1.38 1.38 0 00.3 28.9a1.42 1.42 0 001.2.53H5.5c.08.61.21 1.22.38 1.81.07-.1.1-.23.1-.35A2.03 2.03 0 018.5 29a8.84 8.84 0 01.06-2.53 8.85 8.85 0 013.04-5.41 9.13 9.13 0 0111.8 0 8.85 8.85 0 013.03 5.41 8.87 8.87 0 01-2.53 7.75 9.18 9.18 0 01-6.38 2.62 9.15 9.15 0 01-5.45-1.7c-.36.3-.83.47-1.3.48-.2 0-.4.08-.53.22a.73.73 0 00-.22.52c0 .27-.06.54-.18.8a12.09 12.09 0 007.64 2.7c2.95.01 5.8-1.04 8.02-2.95a11.79 11.79 0 004-7.44h1.82c.34 2.9 1.74 5.57 3.95 7.51a12.17 12.17 0 0016.06 0 11.78 11.78 0 003.95-7.5h4.02a1.44 1.44 0 001.22-.54 1.38 1.38 0 00.22-1.3z" fill="currentColor"/>
</svg>
